<svg width="14" height="15" viewBox="0 0 14 15" fill="none" xmlns="http://www.w3.org/2000/svg">
<path d="M2.99414 4.19336H0.998047C0.724609 4.19336 0.48763 4.09766 0.287109 3.90625C0.0957031 3.70573 0 3.46419 0 3.18164V1.18555C0 0.912109 0.0957031 0.679688 0.287109 0.488281C0.48763 0.28776 0.724609 0.1875 0.998047 0.1875H2.99414C3.27669 0.1875 3.51367 0.28776 3.70508 0.488281C3.9056 0.679688 4.00586 0.912109 4.00586 1.18555V3.18164C4.00586 3.46419 3.9056 3.70573 3.70508 3.90625C3.51367 4.09766 3.27669 4.19336 2.99414 4.19336ZM0.998047 1.18555V3.18164H2.99414V1.18555H0.998047ZM14 2.18359C14 2.04688 13.9499 1.93294 13.8496 1.8418C13.7585 1.74154 13.64 1.69141 13.4941 1.69141H5.49609C5.35938 1.69141 5.24089 1.74154 5.14062 1.8418C5.04948 1.93294 5.00391 2.04688 5.00391 2.18359C5.00391 2.32031 5.04948 2.4388 5.14062 2.53906C5.24089 2.63932 5.35938 2.68945 5.49609 2.68945H13.4941C13.64 2.68945 13.7585 2.63932 13.8496 2.53906C13.9499 2.4388 14 2.32031 14 2.18359ZM2.99414 9.18359H0.998047C0.724609 9.18359 0.48763 9.08789 0.287109 8.89648C0.0957031 8.69596 0 8.45898 0 8.18555V6.18945C0 5.91602 0.0957031 5.68359 0.287109 5.49219C0.48763 5.29167 0.724609 5.19141 0.998047 5.19141H2.99414C3.27669 5.19141 3.51367 5.29167 3.70508 5.49219C3.9056 5.68359 4.00586 5.91602 4.00586 6.18945V8.18555C4.00586 8.45898 3.9056 8.69596 3.70508 8.89648C3.51367 9.08789 3.27669 9.18359 2.99414 9.18359ZM0.998047 6.18945V8.18555H2.99414V6.18945H0.998047ZM14 7.1875C14 7.05078 13.9499 6.93229 13.8496 6.83203C13.7585 6.73177 13.64 6.68164 13.4941 6.68164H5.49609C5.35938 6.68164 5.24089 6.73177 5.14062 6.83203C5.04948 6.93229 5.00391 7.05078 5.00391 7.1875C5.00391 7.32422 5.04948 7.44271 5.14062 7.54297C5.24089 7.64323 5.35938 7.69336 5.49609 7.69336H13.4941C13.64 7.69336 13.7585 7.64323 13.8496 7.54297C13.9499 7.44271 14 7.32422 14 7.1875ZM2.99414 14.1875H0.998047C0.724609 14.1875 0.48763 14.0872 0.287109 13.8867C0.0957031 13.6953 0 13.4629 0 13.1895V11.1934C0 10.9108 0.0957031 10.6738 0.287109 10.4824C0.48763 10.2819 0.724609 10.1816 0.998047 10.1816H2.99414C3.27669 10.1816 3.51367 10.2819 3.70508 10.4824C3.9056 10.6738 4.00586 10.9108 4.00586 11.1934V13.1895C4.00586 13.4629 3.9056 13.6953 3.70508 13.8867C3.51367 14.0872 3.27669 14.1875 2.99414 14.1875ZM0.998047 11.1934V13.1895H2.99414V11.1934H0.998047ZM14 12.1914C14 12.0547 13.9499 11.9362 13.8496 11.8359C13.7585 11.7357 13.64 11.6855 13.4941 11.6855H5.49609C5.35938 11.6855 5.24089 11.7357 5.14062 11.8359C5.04948 11.9362 5.00391 12.0547 5.00391 12.1914C5.00391 12.3281 5.04948 12.4421 5.14062 12.5332C5.24089 12.6335 5.35938 12.6836 5.49609 12.6836H13.4941C13.64 12.6836 13.7585 12.6335 13.8496 12.5332C13.9499 12.4421 14 12.3281 14 12.1914Z" fill="#677B92"/>
</svg>
