<svg width="14" height="14" viewBox="0 0 14 14" fill="none" xmlns="http://www.w3.org/2000/svg">
<path d="M2.50195 5.02734C2.62044 4.90885 2.75716 4.84961 2.91211 4.84961C3.07617 4.84961 3.21745 4.90885 3.33594 5.02734L7 8.69141L10.6641 5.02734C10.7826 4.90885 10.9193 4.84961 11.0742 4.84961C11.2383 4.84961 11.375 4.90885 11.4844 5.02734C11.6029 5.13672 11.6621 5.27344 11.6621 5.4375C11.6621 5.60156 11.6074 5.73828 11.498 5.84766L7.41016 9.93555C7.30078 10.0449 7.16406 10.0996 7 10.0996C6.83594 10.0996 6.69922 10.0449 6.58984 9.93555L2.50195 5.84766C2.39258 5.73828 2.33789 5.60156 2.33789 5.4375C2.33789 5.27344 2.39258 5.13672 2.50195 5.02734Z" fill="#677B92"/>
</svg>
