<svg width="12" height="15" viewBox="0 0 12 15" fill="none" xmlns="http://www.w3.org/2000/svg">
<path d="M2.07617 0.1875H7.3125C7.43099 0.1875 7.53581 0.233073 7.62695 0.324219L11.5645 4.24805C11.6465 4.33919 11.6875 4.44401 11.6875 4.5625V12.4238C11.6875 12.6608 11.6419 12.8841 11.5508 13.0938C11.4688 13.3125 11.3411 13.5039 11.168 13.668C11.0039 13.832 10.8125 13.9596 10.5938 14.0508C10.3841 14.1419 10.1608 14.1875 9.92383 14.1875H2.07617C1.83919 14.1875 1.61133 14.1419 1.39258 14.0508C1.18294 13.9596 0.991536 13.832 0.818359 13.668C0.654297 13.5039 0.526693 13.3125 0.435547 13.0938C0.353516 12.8841 0.3125 12.6608 0.3125 12.4238V1.95117C0.3125 1.71419 0.353516 1.49089 0.435547 1.28125C0.526693 1.0625 0.654297 0.871094 0.818359 0.707031C0.991536 0.542969 1.18294 0.415365 1.39258 0.324219C1.61133 0.233073 1.83919 0.1875 2.07617 0.1875ZM2.07617 1.08984C1.83008 1.08984 1.625 1.17643 1.46094 1.34961C1.29688 1.51367 1.21484 1.71419 1.21484 1.95117V12.4238C1.21484 12.6608 1.29688 12.8613 1.46094 13.0254C1.625 13.1986 1.83008 13.2852 2.07617 13.2852H9.92383C10.1699 13.2852 10.375 13.1986 10.5391 13.0254C10.7031 12.8613 10.7852 12.6608 10.7852 12.4238V4.75391L7.12109 1.08984H2.07617ZM7.3125 0.1875C7.43099 0.1875 7.53581 0.233073 7.62695 0.324219C7.7181 0.40625 7.76367 0.511068 7.76367 0.638672V4.11133H11.2363C11.3639 4.12044 11.4688 4.17057 11.5508 4.26172C11.6419 4.34375 11.6875 4.44401 11.6875 4.5625C11.6875 4.6901 11.6419 4.79948 11.5508 4.89062C11.4688 4.97266 11.3639 5.01367 11.2363 5.01367H7.3125C7.1849 5.01367 7.07552 4.97266 6.98438 4.89062C6.90234 4.79948 6.86133 4.6901 6.86133 4.5625V0.638672C6.86133 0.511068 6.90234 0.40625 6.98438 0.324219C7.07552 0.233073 7.1849 0.1875 7.3125 0.1875ZM3.375 7.39258H8.625C8.74349 7.39258 8.84375 7.43815 8.92578 7.5293C9.01693 7.61133 9.06706 7.71615 9.07617 7.84375C9.07617 7.97135 9.0306 8.08073 8.93945 8.17188C8.84831 8.25391 8.74349 8.29492 8.625 8.29492H3.375C3.25651 8.29492 3.15169 8.25391 3.06055 8.17188C2.9694 8.08073 2.92383 7.97135 2.92383 7.84375C2.93294 7.71615 2.97852 7.61133 3.06055 7.5293C3.15169 7.43815 3.25651 7.39258 3.375 7.39258ZM3.375 10.0176H8.625C8.74349 10.0176 8.84831 10.0632 8.93945 10.1543C9.0306 10.2363 9.07617 10.3411 9.07617 10.4688C9.06706 10.5872 9.01693 10.6921 8.92578 10.7832C8.84375 10.8652 8.74349 10.9062 8.625 10.9062H3.375C3.25651 10.9062 3.15169 10.8652 3.06055 10.7832C2.97852 10.6921 2.93294 10.5872 2.92383 10.4688C2.92383 10.3411 2.9694 10.2363 3.06055 10.1543C3.15169 10.0632 3.25651 10.0176 3.375 10.0176ZM3.375 4.76758H4.03125H4.6875C4.8151 4.76758 4.91992 4.81315 5.00195 4.9043C5.0931 4.99544 5.13867 5.10026 5.13867 5.21875C5.13867 5.34635 5.0931 5.45573 5.00195 5.54688C4.91992 5.62891 4.8151 5.66992 4.6875 5.66992H3.375C3.25651 5.66992 3.15169 5.62891 3.06055 5.54688C2.9694 5.45573 2.92383 5.34635 2.92383 5.21875C2.92383 5.10026 2.9694 4.99544 3.06055 4.9043C3.15169 4.81315 3.25651 4.76758 3.375 4.76758Z" fill="#677B92"/>
</svg>
