<svg width="14" height="15" viewBox="0 0 14 15" fill="none" xmlns="http://www.w3.org/2000/svg">
<g id="dots-vertical">
<path id="Vector" d="M6.99984 3.46026V3.46609M6.99984 7.54359V7.54942M6.99984 11.6269V11.6328M6.99984 4.04359C6.84513 4.04359 6.69675 3.98213 6.58736 3.87273C6.47796 3.76334 6.4165 3.61497 6.4165 3.46026C6.4165 3.30555 6.47796 3.15717 6.58736 3.04778C6.69675 2.93838 6.84513 2.87692 6.99984 2.87692C7.15455 2.87692 7.30292 2.93838 7.41232 3.04778C7.52171 3.15717 7.58317 3.30555 7.58317 3.46026C7.58317 3.61497 7.52171 3.76334 7.41232 3.87273C7.30292 3.98213 7.15455 4.04359 6.99984 4.04359ZM6.99984 8.12692C6.84513 8.12692 6.69675 8.06546 6.58736 7.95607C6.47796 7.84667 6.4165 7.6983 6.4165 7.54359C6.4165 7.38888 6.47796 7.24051 6.58736 7.13111C6.69675 7.02171 6.84513 6.96026 6.99984 6.96026C7.15455 6.96026 7.30292 7.02171 7.41232 7.13111C7.52171 7.24051 7.58317 7.38888 7.58317 7.54359C7.58317 7.6983 7.52171 7.84667 7.41232 7.95607C7.30292 8.06546 7.15455 8.12692 6.99984 8.12692ZM6.99984 12.2103C6.84513 12.2103 6.69675 12.1488 6.58736 12.0394C6.47796 11.93 6.4165 11.7816 6.4165 11.6269C6.4165 11.4722 6.47796 11.3238 6.58736 11.2144C6.69675 11.105 6.84513 11.0436 6.99984 11.0436C7.15455 11.0436 7.30292 11.105 7.41232 11.2144C7.52171 11.3238 7.58317 11.4722 7.58317 11.6269C7.58317 11.7816 7.52171 11.93 7.41232 12.0394C7.30292 12.1488 7.15455 12.2103 6.99984 12.2103Z" stroke="#273647" stroke-width="1.5" stroke-linecap="round" stroke-linejoin="round"/>
</g>
</svg>
