<svg width="12" height="13" viewBox="0 0 12 13" fill="none" xmlns="http://www.w3.org/2000/svg">
<path d="M1.91211 1.52539C1.75716 1.52539 1.62044 1.58464 1.50195 1.70312C1.39258 1.8125 1.33789 1.94466 1.33789 2.09961V7.45898C1.52018 7.38607 1.71159 7.34961 1.91211 7.34961H5.71289C5.86784 7.34961 6.00456 7.40885 6.12305 7.52734L6.5332 7.9375H10.3066L8.98047 5.28516C8.88932 5.11198 8.88932 4.9388 8.98047 4.76562L10.3066 2.09961H6.58789V4.4375C6.58789 4.60156 6.52865 4.74284 6.41016 4.86133C6.30078 4.9707 6.16406 5.02539 6 5.02539C5.83594 5.02539 5.69466 4.9707 5.57617 4.86133C5.4668 4.74284 5.41211 4.60156 5.41211 4.4375V1.52539H1.91211ZM6.5332 0.9375H11.25C11.3503 0.9375 11.4414 0.964844 11.5234 1.01953C11.6146 1.0651 11.6875 1.13346 11.7422 1.22461C11.7969 1.30664 11.8242 1.39779 11.8242 1.49805C11.8333 1.59831 11.8151 1.69401 11.7695 1.78516L10.1562 5.02539L11.7695 8.26562C11.8151 8.35677 11.8333 8.45247 11.8242 8.55273C11.8242 8.65299 11.7969 8.7487 11.7422 8.83984C11.6875 8.92188 11.6146 8.98568 11.5234 9.03125C11.4414 9.07682 11.3503 9.09961 11.25 9.09961H6.28711C6.13216 9.09961 5.99544 9.04492 5.87695 8.93555L5.4668 8.52539H1.91211C1.75716 8.52539 1.62044 8.58464 1.50195 8.70312C1.39258 8.8125 1.33789 8.94466 1.33789 9.09961V11.4375C1.33789 11.6016 1.27865 11.7383 1.16016 11.8477C1.05078 11.9661 0.914062 12.0254 0.75 12.0254C0.585938 12.0254 0.444661 11.9661 0.326172 11.8477C0.216797 11.7383 0.162109 11.6016 0.162109 11.4375V2.09961C0.162109 1.87174 0.207682 1.65299 0.298828 1.44336C0.389974 1.22461 0.517578 1.0332 0.681641 0.869141C0.845703 0.705078 1.03255 0.577474 1.24219 0.486328C1.46094 0.395182 1.68424 0.349609 1.91211 0.349609H5.71289C5.86784 0.349609 6.00456 0.408854 6.12305 0.527344L6.5332 0.9375Z" fill="#677B92"/>
</svg>
