<svg width="14" height="14" viewBox="0 0 14 14" fill="none" xmlns="http://www.w3.org/2000/svg">
<g id="Icons">
<path id="Vector" d="M1.75 3.5H2.91667H12.25" stroke="#D51E68" stroke-width="1.2" stroke-linecap="round" stroke-linejoin="round"/>
<path id="Vector_2" d="M4.66675 3.5V2.33333C4.66675 2.02392 4.78966 1.72717 5.00846 1.50838C5.22725 1.28958 5.524 1.16667 5.83341 1.16667H8.16675C8.47617 1.16667 8.77291 1.28958 8.99171 1.50838C9.2105 1.72717 9.33341 2.02392 9.33341 2.33333V3.5M11.0834 3.5V11.6667C11.0834 11.9761 10.9605 12.2728 10.7417 12.4916C10.5229 12.7104 10.2262 12.8333 9.91675 12.8333H4.08341C3.774 12.8333 3.47725 12.7104 3.25846 12.4916C3.03966 12.2728 2.91675 11.9761 2.91675 11.6667V3.5H11.0834Z" stroke="#D51E68" stroke-width="1.2" stroke-linecap="round" stroke-linejoin="round"/>
<path id="Vector_3" d="M5.83325 6.41667V9.91667" stroke="#D51E68" stroke-width="1.2" stroke-linecap="round" stroke-linejoin="round"/>
<path id="Vector_4" d="M8.16675 6.41667V9.91667" stroke="#D51E68" stroke-width="1.2" stroke-linecap="round" stroke-linejoin="round"/>
</g>
</svg>
