<svg width="16" height="12" viewBox="0 0 16 12" fill="none" xmlns="http://www.w3.org/2000/svg">
<path d="M7.55078 0.511719C8.07422 0.480469 8.60938 0.511719 9.15625 0.605469C9.70312 0.699219 10.2227 0.847656 10.7148 1.05078C10.918 1.13672 11.0625 1.23437 11.1484 1.34375C11.2422 1.45313 11.2891 1.59375 11.2891 1.76562C11.2891 1.86719 11.2734 1.95703 11.2422 2.03516C11.2109 2.10547 11.1562 2.17969 11.0781 2.25781C10.9531 2.375 10.8203 2.44141 10.6797 2.45703C10.5391 2.46484 10.3594 2.42188 10.1406 2.32812C9.32812 1.99219 8.46875 1.85938 7.5625 1.92969C6.65625 2 5.82812 2.26953 5.07812 2.73828C4.375 3.16797 3.79297 3.73047 3.33203 4.42578C2.87891 5.11328 2.58984 5.87109 2.46484 6.69922C2.43359 6.88672 2.41406 7.13672 2.40625 7.44922C2.40625 7.76172 2.41797 8.00781 2.44141 8.1875C2.52734 8.80469 2.68359 9.35547 2.91016 9.83984C2.98047 9.98047 3.03125 10.0781 3.0625 10.1328C3.10156 10.1797 3.15625 10.2227 3.22656 10.2617L3.32031 10.3086H12.6836L12.7773 10.2617C12.832 10.2305 12.8789 10.1953 12.918 10.1562C12.957 10.1094 12.9961 10.043 13.0352 9.95703C13.3164 9.39453 13.4883 8.77344 13.5508 8.09375C13.6211 7.40625 13.5742 6.74219 13.4102 6.10156C13.3867 5.99219 13.3477 5.85938 13.293 5.70312C13.2383 5.53906 13.1914 5.41797 13.1523 5.33984C13.082 5.17578 13.0391 5.04297 13.0234 4.94141C13.0078 4.83203 13.0195 4.72656 13.0586 4.625C13.1211 4.46094 13.2344 4.33594 13.3984 4.25C13.4531 4.21875 13.4961 4.19922 13.5273 4.19141C13.5664 4.18359 13.625 4.17969 13.7031 4.17969C13.7812 4.17969 13.8398 4.18359 13.8789 4.19141C13.918 4.19922 13.9648 4.21484 14.0195 4.23828C14.1367 4.29297 14.2305 4.37891 14.3008 4.49609C14.3711 4.60547 14.4609 4.8125 14.5703 5.11719C14.8828 5.96875 15.0234 6.84375 14.9922 7.74219C14.9609 8.63281 14.7656 9.5 14.4062 10.3438C14.3281 10.5312 14.2539 10.6836 14.1836 10.8008C14.082 10.9648 13.9453 11.1172 13.7734 11.2578C13.6094 11.3984 13.4375 11.5039 13.2578 11.5742L13.1992 11.6094C13.0898 11.6484 12.9688 11.6758 12.8359 11.6914C12.6562 11.707 12.2852 11.7148 11.7227 11.7148L7.10547 11.7266L4.28125 11.7148C3.71094 11.7148 3.33594 11.707 3.15625 11.6914C3.03125 11.6758 2.91406 11.6484 2.80469 11.6094L2.74609 11.5742C2.55859 11.5039 2.38281 11.3984 2.21875 11.2578C2.05469 11.1172 1.91797 10.9609 1.80859 10.7891C1.70703 10.6172 1.59766 10.3828 1.48047 10.0859C1.37109 9.78125 1.28125 9.49219 1.21094 9.21875C0.984375 8.32812 0.941406 7.41797 1.08203 6.48828C1.22266 5.55078 1.53125 4.69141 2.00781 3.91016C2.60156 2.92578 3.38672 2.13281 4.36328 1.53125C5.34766 0.929687 6.41016 0.589844 7.55078 0.511719ZM12.7422 1.88281C12.8125 1.85938 12.8945 1.85547 12.9883 1.87109C13.0898 1.87891 13.1797 1.89844 13.2578 1.92969C13.4141 2.00781 13.5234 2.13281 13.5859 2.30469C13.6562 2.46875 13.6602 2.63281 13.5977 2.79688C13.582 2.84375 13.5391 2.91016 13.4688 2.99609C13.375 3.09766 13.1797 3.29687 12.8828 3.59375L11.4531 5.04688C10.0547 6.45312 9.35938 7.16797 9.36719 7.19141C9.38281 7.24609 9.39062 7.34375 9.39062 7.48438C9.39062 7.61719 9.38281 7.72656 9.36719 7.8125C9.29688 8.13281 9.13281 8.39844 8.875 8.60938C8.61719 8.82031 8.32422 8.92578 7.99609 8.92578C7.70703 8.92578 7.44531 8.84375 7.21094 8.67969C6.97656 8.50781 6.80469 8.28906 6.69531 8.02344C6.59375 7.75 6.57812 7.47266 6.64844 7.19141C6.70312 6.95703 6.8125 6.75 6.97656 6.57031C7.14062 6.39062 7.33203 6.26172 7.55078 6.18359C7.62109 6.16016 7.68359 6.14844 7.73828 6.14844C7.80078 6.14062 7.90625 6.13672 8.05469 6.13672H8.39453L10.4336 4.07422C11.8008 2.70703 12.5117 2.00781 12.5664 1.97656C12.6211 1.9375 12.6797 1.90625 12.7422 1.88281ZM8.16016 7.34375C8.15234 7.33594 8.11328 7.32812 8.04297 7.32031C7.99609 7.3125 7.96094 7.3125 7.9375 7.32031C7.92188 7.32812 7.90234 7.34375 7.87891 7.36719C7.81641 7.42188 7.79297 7.48828 7.80859 7.56641C7.83203 7.63672 7.875 7.68359 7.9375 7.70703C8.00781 7.73047 8.07422 7.71484 8.13672 7.66016C8.16016 7.63672 8.17188 7.61719 8.17188 7.60156C8.17969 7.57812 8.18359 7.53906 8.18359 7.48438C8.17578 7.40625 8.16797 7.35938 8.16016 7.34375Z" fill="#677B92"/>
</svg>
