<svg width="10" height="15" viewBox="0 0 10 15" fill="none" xmlns="http://www.w3.org/2000/svg">
<path d="M8.5 5.19141C8.70052 5.19141 8.89193 5.22786 9.07422 5.30078C9.25651 5.3737 9.41602 5.48307 9.55273 5.62891C9.69857 5.76562 9.80794 5.92969 9.88086 6.12109C9.96289 6.30339 10.0039 6.49023 10.0039 6.68164V11.3438C10.0039 11.7174 9.93099 12.0775 9.78516 12.4238C9.63932 12.7793 9.42969 13.0892 9.15625 13.3535C8.89193 13.6178 8.58659 13.8229 8.24023 13.9688C7.89388 14.1146 7.5293 14.1875 7.14648 14.1875H2.85352C2.4707 14.1875 2.10612 14.1146 1.75977 13.9688C1.41341 13.8229 1.10352 13.6178 0.830078 13.3535C0.565755 13.0892 0.360677 12.7793 0.214844 12.4238C0.0690104 12.0775 -0.00390625 11.7174 -0.00390625 11.3438V6.68164C-0.00390625 6.49023 0.0325521 6.30339 0.105469 6.12109C0.1875 5.92969 0.296875 5.76562 0.433594 5.62891C0.579427 5.48307 0.74349 5.3737 0.925781 5.30078C1.10807 5.22786 1.29948 5.19141 1.5 5.19141V3.53711C1.5 3.09961 1.58203 2.67578 1.74609 2.26562C1.91927 1.84635 2.16081 1.48177 2.4707 1.17188C2.78971 0.852865 3.1543 0.611328 3.56445 0.447266C3.98372 0.274089 4.41211 0.1875 4.84961 0.1875H5.15039C5.58789 0.1875 6.01172 0.274089 6.42188 0.447266C6.84115 0.611328 7.20573 0.852865 7.51562 1.17188C7.83464 1.48177 8.07617 1.84635 8.24023 2.26562C8.41341 2.67578 8.5 3.09961 8.5 3.53711V5.19141ZM2.49805 3.53711V5.19141H7.50195V3.53711C7.50195 3.22721 7.44271 2.93099 7.32422 2.64844C7.20573 2.35677 7.03255 2.10156 6.80469 1.88281C6.58594 1.65495 6.33073 1.48177 6.03906 1.36328C5.75651 1.24479 5.46029 1.18555 5.15039 1.18555H4.84961C4.53971 1.18555 4.23893 1.24479 3.94727 1.36328C3.66471 1.48177 3.40951 1.65495 3.18164 1.88281C2.96289 2.10156 2.79427 2.35677 2.67578 2.64844C2.55729 2.93099 2.49805 3.22721 2.49805 3.53711ZM9.00586 11.3438V6.68164C9.00586 6.54492 8.95573 6.43099 8.85547 6.33984C8.75521 6.23958 8.63672 6.18945 8.5 6.18945H1.5C1.36328 6.18945 1.24479 6.23958 1.14453 6.33984C1.04427 6.43099 0.994141 6.54492 0.994141 6.68164V11.3438C0.994141 11.5807 1.03971 11.8132 1.13086 12.041C1.23112 12.2689 1.36784 12.4694 1.54102 12.6426C1.71419 12.8158 1.91471 12.9479 2.14258 13.0391C2.37044 13.1393 2.60742 13.1895 2.85352 13.1895H7.14648C7.39258 13.1895 7.62956 13.1393 7.85742 13.0391C8.08529 12.9479 8.28581 12.8158 8.45898 12.6426C8.63216 12.4694 8.76432 12.2689 8.85547 12.041C8.95573 11.8132 9.00586 11.5807 9.00586 11.3438ZM5.50586 9.55273C5.69727 9.43424 5.83398 9.27018 5.91602 9.06055C6.00716 8.85091 6.02083 8.63672 5.95703 8.41797C5.90234 8.19922 5.78385 8.02148 5.60156 7.88477C5.42839 7.74805 5.22786 7.67969 5 7.67969C4.77214 7.67969 4.56706 7.74805 4.38477 7.88477C4.21159 8.02148 4.0931 8.19922 4.0293 8.41797C3.97461 8.63672 3.98828 8.85091 4.07031 9.06055C4.16146 9.27018 4.30273 9.43424 4.49414 9.55273V11.1934C4.49414 11.3301 4.54427 11.4486 4.64453 11.5488C4.74479 11.64 4.86328 11.6855 5 11.6855C5.13672 11.6855 5.25521 11.64 5.35547 11.5488C5.45573 11.4486 5.50586 11.3301 5.50586 11.1934V9.55273Z" fill="#6774F4"/>
</svg>
