<svg width="16" height="16" viewBox="0 0 16 16" fill="none" xmlns="http://www.w3.org/2000/svg">
<g id="pencil">
<path id="Vector (Stroke)" fill-rule="evenodd" clip-rule="evenodd" d="M12.3332 2.66645C12.068 2.66645 11.8136 2.77183 11.626 2.95941L11.0974 3.488L12.5119 4.90252L13.0405 4.37393C13.2281 4.18635 13.3335 3.93194 13.3335 3.66667C13.3335 3.40139 13.2281 3.14698 13.0405 2.95941C12.8529 2.77183 12.5985 2.66645 12.3332 2.66645ZM13.9833 5.31674C14.4209 4.87911 14.6668 4.28556 14.6668 3.66667C14.6668 3.04777 14.4209 2.45422 13.9833 2.0166C13.5457 1.57897 12.9521 1.33311 12.3332 1.33311C11.7144 1.33311 11.1208 1.57897 10.6832 2.0166L9.68353 3.01625C9.68341 3.01636 9.68364 3.01613 9.68353 3.01625C9.68341 3.01636 9.68295 3.01683 9.68283 3.01694L1.52851 11.1713C1.40349 11.2963 1.33325 11.4659 1.33325 11.6427V14.024C1.33325 14.3922 1.63173 14.6907 1.99992 14.6907H4.33325C4.51006 14.6907 4.67963 14.6204 4.80466 14.4954L13.9833 5.31674ZM11.5691 5.84533L10.1546 4.43081L2.66658 11.9188V13.3573H4.05711L11.5691 5.84533Z" fill="#ECEFF1"/>
</g>
</svg>
