<svg width="14" height="13" viewBox="0 0 14 13" fill="none" xmlns="http://www.w3.org/2000/svg">
<path d="M2.91211 7.34961H7.58789C7.9707 7.34961 8.33984 7.42708 8.69531 7.58203C9.05078 7.72786 9.36523 7.9375 9.63867 8.21094C9.92122 8.48438 10.1354 8.79883 10.2812 9.1543C10.4271 9.50977 10.5 9.88346 10.5 10.2754V11.4375C10.5 11.6016 10.4408 11.7383 10.3223 11.8477C10.2129 11.9661 10.0762 12.0254 9.91211 12.0254C9.75716 12.0254 9.62044 11.9661 9.50195 11.8477C9.39258 11.7383 9.33789 11.6016 9.33789 11.4375V10.2754C9.33789 10.0384 9.29232 9.8151 9.20117 9.60547C9.11003 9.38672 8.98242 9.19531 8.81836 9.03125C8.6543 8.86719 8.46289 8.74414 8.24414 8.66211C8.03451 8.57096 7.81576 8.52539 7.58789 8.52539H2.91211C2.68424 8.52539 2.46094 8.57096 2.24219 8.66211C2.03255 8.74414 1.8457 8.86719 1.68164 9.03125C1.51758 9.19531 1.38997 9.38672 1.29883 9.60547C1.20768 9.8151 1.16211 10.0384 1.16211 10.2754V11.4375C1.16211 11.6016 1.10286 11.7383 0.984375 11.8477C0.875 11.9661 0.742839 12.0254 0.587891 12.0254C0.423828 12.0254 0.282552 11.9661 0.164062 11.8477C0.0546875 11.7383 0 11.6016 0 11.4375V10.2754C0 9.88346 0.0729167 9.50977 0.21875 9.1543C0.364583 8.79883 0.574219 8.48438 0.847656 8.21094C1.12109 7.9375 1.43555 7.72786 1.79102 7.58203C2.1556 7.42708 2.5293 7.34961 2.91211 7.34961ZM5.25 0.349609C5.77865 0.349609 6.26628 0.481771 6.71289 0.746094C7.15951 1.01042 7.51042 1.36589 7.76562 1.8125C8.02995 2.25911 8.16211 2.74674 8.16211 3.27539C8.16211 3.79492 8.02995 4.27799 7.76562 4.72461C7.51042 5.17122 7.15951 5.52669 6.71289 5.79102C6.26628 6.05534 5.77865 6.1875 5.25 6.1875C4.72135 6.1875 4.23372 6.05534 3.78711 5.79102C3.34049 5.52669 2.98503 5.17122 2.7207 4.72461C2.46549 4.27799 2.33789 3.79492 2.33789 3.27539C2.33789 2.74674 2.46549 2.25911 2.7207 1.8125C2.98503 1.36589 3.34049 1.01042 3.78711 0.746094C4.23372 0.481771 4.72135 0.349609 5.25 0.349609ZM5.25 1.52539C4.93099 1.52539 4.63477 1.60286 4.36133 1.75781C4.09701 1.91276 3.88737 2.12695 3.73242 2.40039C3.57747 2.66471 3.5 2.95638 3.5 3.27539C3.5 3.5944 3.57747 3.88607 3.73242 4.15039C3.88737 4.41471 4.09701 4.62891 4.36133 4.79297C4.63477 4.94792 4.93099 5.02539 5.25 5.02539C5.56901 5.02539 5.86068 4.94792 6.125 4.79297C6.39844 4.62891 6.61263 4.41471 6.76758 4.15039C6.92253 3.88607 7 3.5944 7 3.27539C7 2.95638 6.92253 2.66471 6.76758 2.40039C6.61263 2.12695 6.39844 1.91276 6.125 1.75781C5.86068 1.60286 5.56901 1.52539 5.25 1.52539ZM11.8125 7.44531C12.1224 7.52734 12.4141 7.65951 12.6875 7.8418C12.9609 8.01497 13.1934 8.22917 13.3848 8.48438C13.5853 8.73958 13.7357 9.02214 13.8359 9.33203C13.9453 9.63281 14 9.94727 14 10.2754V11.4375C14 11.6016 13.9408 11.7383 13.8223 11.8477C13.7129 11.9661 13.5762 12.0254 13.4121 12.0254C13.2572 12.0254 13.1204 11.9661 13.002 11.8477C12.8926 11.7383 12.8379 11.6016 12.8379 11.4375V10.2754C12.8379 9.87435 12.7148 9.51888 12.4688 9.20898C12.2227 8.88997 11.9082 8.68034 11.5254 8.58008H11.5117C11.3932 8.54362 11.293 8.47526 11.2109 8.375C11.1289 8.26562 11.0879 8.14714 11.0879 8.01953C11.0879 7.96484 11.0924 7.91471 11.1016 7.86914C11.138 7.74154 11.2064 7.63672 11.3066 7.55469C11.416 7.47266 11.5345 7.43164 11.6621 7.43164C11.7168 7.43164 11.7669 7.4362 11.8125 7.44531ZM9.47461 0.445312C9.79362 0.527344 10.0853 0.659505 10.3496 0.841797C10.623 1.01497 10.86 1.22917 11.0605 1.48438C11.2611 1.73958 11.4115 2.02214 11.5117 2.33203C11.6211 2.63281 11.6758 2.94727 11.6758 3.27539C11.6758 3.5944 11.6211 3.90885 11.5117 4.21875C11.4115 4.52865 11.2611 4.8112 11.0605 5.06641C10.86 5.32161 10.623 5.54036 10.3496 5.72266C10.0853 5.89583 9.79362 6.02344 9.47461 6.10547H9.48828C9.43359 6.11458 9.38346 6.11914 9.33789 6.11914C9.20117 6.11914 9.07812 6.07812 8.96875 5.99609C8.86849 5.91406 8.80013 5.80924 8.76367 5.68164C8.75456 5.63607 8.75 5.58594 8.75 5.53125C8.75 5.40365 8.79102 5.28971 8.87305 5.18945C8.95508 5.08008 9.0599 5.00716 9.1875 4.9707C9.57031 4.87044 9.88477 4.66536 10.1309 4.35547C10.377 4.03646 10.5 3.67643 10.5 3.27539C10.5 2.87435 10.377 2.51888 10.1309 2.20898C9.88477 1.88997 9.57031 1.68034 9.1875 1.58008C9.0599 1.54362 8.95508 1.47526 8.87305 1.375C8.79102 1.26562 8.75 1.14714 8.75 1.01953C8.75 0.964844 8.75456 0.914714 8.76367 0.869141C8.80013 0.741536 8.86849 0.636719 8.96875 0.554688C9.07812 0.472656 9.20117 0.431641 9.33789 0.431641C9.38346 0.431641 9.42904 0.436198 9.47461 0.445312Z" fill="#677B92"/>
</svg>
