<svg width="12" height="13" viewBox="0 0 12 13" fill="none" xmlns="http://www.w3.org/2000/svg">
<path d="M6 1.88281C5.66406 1.88281 5.35156 1.96484 5.0625 2.12891C4.78125 2.29297 4.55469 2.51953 4.38281 2.80859C4.21875 3.08984 4.13672 3.40234 4.13672 3.74609C4.13672 4.08203 4.21875 4.39453 4.38281 4.68359C4.55469 4.96484 4.78125 5.1875 5.0625 5.35156C5.35156 5.51562 5.66406 5.59766 6 5.59766C6.33594 5.59766 6.64453 5.51562 6.92578 5.35156C7.21484 5.1875 7.44141 4.96484 7.60547 4.68359C7.77734 4.39453 7.86328 4.08203 7.86328 3.74609C7.86328 3.40234 7.77734 3.08984 7.60547 2.80859C7.44141 2.51953 7.21484 2.29297 6.92578 2.12891C6.64453 1.96484 6.33594 1.88281 6 1.88281ZM3.12891 3.74609C3.12891 3.22266 3.25781 2.74219 3.51562 2.30469C3.77344 1.86719 4.12109 1.51953 4.55859 1.26172C5.00391 1.00391 5.48438 0.875 6 0.875C6.51562 0.875 6.99219 1.00391 7.42969 1.26172C7.875 1.51953 8.22656 1.86719 8.48438 2.30469C8.74219 2.74219 8.87109 3.22266 8.87109 3.74609C8.87109 4.26172 8.74219 4.73828 8.48438 5.17578C8.22656 5.61328 7.875 5.96094 7.42969 6.21875C6.99219 6.47656 6.51562 6.60547 6 6.60547C5.48438 6.60547 5.00391 6.47656 4.55859 6.21875C4.12109 5.96094 3.77344 5.61328 3.51562 5.17578C3.25781 4.73828 3.12891 4.26172 3.12891 3.74609ZM6 9.38281C5.26562 9.38281 4.56641 9.53516 3.90234 9.83984C3.26172 10.1289 2.70312 10.5391 2.22656 11.0703C1.75 11.6016 1.40234 12.2031 1.18359 12.875L0.234375 12.5586C0.492188 11.7539 0.90625 11.0352 1.47656 10.4023C2.04688 9.76953 2.71484 9.27734 3.48047 8.92578C4.27734 8.55859 5.11719 8.375 6 8.375C6.88281 8.375 7.72266 8.55859 8.51953 8.92578C9.28516 9.27734 9.95312 9.76953 10.5234 10.4023C11.0938 11.0352 11.5078 11.7539 11.7656 12.5586L10.8164 12.875C10.5977 12.2031 10.25 11.6016 9.77344 11.0703C9.29688 10.5391 8.73828 10.1289 8.09766 9.83984C7.43359 9.53516 6.73438 9.38281 6 9.38281Z" fill="#677B92"/>
</svg>
